<?xml version="1.0" encoding="UTF-8"?>
<svg width="512" height="512" viewBox="0 0 512 512" fill="none" xmlns="http://www.w3.org/2000/svg">
    <g transform="translate(64, 64) scale(0.75)">
        <path fill="#1d4b4f" d="M448 96c17.7 0 32 14.3 32 32v320c0 17.7-14.3 32-32 32H64c-17.7 0-32-14.3-32-32V128c0-17.7 14.3-32 32-32h384zM64 96c-35.3 0-64 28.7-64 64v320c0 35.3 28.7 64 64 64h384c35.3 0 64-28.7 64-64V160c0-35.3-28.7-64-64-64H64zm32 80v32h32v-32H96zm96 0v32h32v-32h-32z"/>
        <path fill="#1d4b4f" d="M256 448c106 0 192-86 192-192S362 64 256 64 64 150 64 256s86 192 192 192zm0-32c-88.4 0-160-71.6-160-160s71.6-160 160-160 160 71.6 160 160-71.6 160-160 160z"/>
        <path fill="#1d4b4f" d="M256 384c70.7 0 128-57.3 128-128s-57.3-128-128-128-128 57.3-128 128 57.3 128 128 128zm0-32c-53 0-96-43-96-96s43-96 96-96 96 43 96 96-43 96-96 96z"/>
    </g>
</svg> 